<?xml version="1.0" encoding="UTF-8" standalone="no"?>
<svg width="100px" height="100px" viewBox="0 0 100 100" version="1.1" xmlns="http://www.w3.org/2000/svg" xmlns:xlink="http://www.w3.org/1999/xlink" xmlns:sketch="http://www.bohemiancoding.com/sketch/ns">
    <!-- Generator: Sketch 3.3.2 (12043) - http://www.bohemiancoding.com/sketch -->
    <title>learning</title>
    <desc>Created with Sketch.</desc>
    <defs></defs>
    <g id="Page-1" stroke="none" stroke-width="1" fill="none" fill-rule="evenodd" sketch:type="MSPage">
        <g id="learning" sketch:type="MSLayerGroup">
            <circle id="bg-copy-3" fill="#F5F5F5" sketch:type="MSShapeGroup" cx="50" cy="50" r="50"></circle>
            <rect id="ray-copy-13" fill="#DCDCDC" sketch:type="MSShapeGroup" x="25" y="73" width="50" height="2" rx="8"></rect>
            <rect id="ray-copy-14" fill="#DCDCDC" sketch:type="MSShapeGroup" transform="translate(26.000000, 50.000000) rotate(-90.000000) translate(-26.000000, -50.000000) " x="1" y="49" width="50" height="2" rx="8"></rect>
            <path d="M17.6372353,50.5080933 L19.2258621,47.7754087 L39.3084812,45.9698383 C40.4122204,45.8706043 42.1432768,46.1079546 43.1731681,46.4993153 L58.9037462,52.4769664 C59.9344146,52.8686225 61.6364758,52.9773314 62.7234694,52.7154223 L83.2258621,47.7754087 L84.1445099,51.9979044 L62.8010218,57.6923623 C61.7385033,57.975843 60.0336498,57.8964561 58.9921169,57.5146772 L42.5319706,51.4811316 C41.490889,51.0995181 39.7537613,50.8900604 38.6509199,51.0134141 L19.2258621,53.1861225 L17.6372353,50.5080933 Z" id="ray-copy-10" fill="#DCDCDC" sketch:type="MSShapeGroup" transform="translate(50.890873, 51.904762) rotate(-44.000000) translate(-50.890873, -51.904762) "></path>
            <path d="M62.7579944,22.2190192 C62.1363986,21.3030498 62.5221695,20.5605098 63.6236506,20.5605098 L81.6413406,20.5605098 C82.7410251,20.5605098 83.1312647,21.2991122 82.5069968,22.2190192 L73.7579944,35.1113502 C73.1363986,36.0273197 72.1312647,36.0312573 71.5069968,35.1113502 L62.7579944,22.2190192 Z" id="ray-copy-22" fill="#DCDCDC" sketch:type="MSShapeGroup" transform="translate(72.632898, 28.180157) rotate(-150.000000) translate(-72.632898, -28.180157) "></path>
        </g>
    </g>
</svg>