<?xml version="1.0" encoding="UTF-8" standalone="no"?>
<svg width="100px" height="100px" viewBox="0 0 100 100" version="1.1" xmlns="http://www.w3.org/2000/svg" xmlns:xlink="http://www.w3.org/1999/xlink" xmlns:sketch="http://www.bohemiancoding.com/sketch/ns">
    <!-- Generator: Sketch 3.3.2 (12043) - http://www.bohemiancoding.com/sketch -->
    <title>transparency</title>
    <desc>Created with Sketch.</desc>
    <defs></defs>
    <g id="Page-1" stroke="none" stroke-width="1" fill="none" fill-rule="evenodd" sketch:type="MSPage">
        <g id="transparency" sketch:type="MSLayerGroup">
            <circle id="bg-copy" fill="#F5F5F5" sketch:type="MSShapeGroup" cx="50" cy="50" r="50"></circle>
            <path d="M20.4264609,46 L66.4446328,46 C67.5441843,46 68.888325,46.8978404 69.4399131,47.991617 L82.5600869,74.008383 C83.114783,75.1083227 82.6753888,76 81.5735391,76 L35.5553672,76 C34.4558157,76 33.111675,75.1021596 32.5600869,74.008383 L19.4399131,47.991617 C18.885217,46.8916773 19.3246112,46 20.4264609,46 Z" id="ray" fill-opacity="0.6" fill="#DCDCDC" sketch:type="MSShapeGroup" transform="translate(51.000000, 61.000000) rotate(-27.000000) translate(-51.000000, -61.000000) "></path>
            <path d="M20.4264609,33.8019876 L66.4446328,33.8019876 C67.5441843,33.8019876 68.888325,34.699828 69.4399131,35.7936046 L82.5600869,61.8103706 C83.114783,62.9103103 82.6753888,63.8019876 81.5735391,63.8019876 L35.5553672,63.8019876 C34.4558157,63.8019876 33.111675,62.9041472 32.5600869,61.8103706 L19.4399131,35.7936046 C18.885217,34.6936649 19.3246112,33.8019876 20.4264609,33.8019876 Z" id="ray-copy-4" fill-opacity="0.6" fill="#DCDCDC" sketch:type="MSShapeGroup" transform="translate(51.000000, 48.801988) rotate(-27.000000) translate(-51.000000, -48.801988) "></path>
            <path d="M20.4264609,23 L66.4446328,23 C67.5441843,23 68.888325,23.8978404 69.4399131,24.991617 L82.5600869,51.008383 C83.114783,52.1083227 82.6753888,53 81.5735391,53 L35.5553672,53 C34.4558157,53 33.111675,52.1021596 32.5600869,51.008383 L19.4399131,24.991617 C18.885217,23.8916773 19.3246112,23 20.4264609,23 Z" id="ray-copy-5" fill-opacity="0.6" fill="#DCDCDC" sketch:type="MSShapeGroup" transform="translate(51.000000, 38.000000) rotate(-27.000000) translate(-51.000000, -38.000000) "></path>
        </g>
    </g>
</svg>